<?xml version="1.0" encoding="utf-8"?>
<!-- Generator: Adobe Illustrator 23.0.3, SVG Export Plug-In . SVG Version: 6.00 Build 0)  -->
<svg version="1.1" id="Layer_1" xmlns="http://www.w3.org/2000/svg" xmlns:xlink="http://www.w3.org/1999/xlink" x="0px" y="0px"
	 viewBox="0 0 722.1 145.6" style="enable-background:new 0 0 722.1 145.6;" xml:space="preserve">
<style type="text/css">
	.st0{fill-rule:evenodd;clip-rule:evenodd;fill:#9B5C8F;}
	.st1{fill:#FFFFFF;}
</style>
<g>
	<path class="st0" d="M22.7,0h199.1c12.6,0,22.8,10.2,22.8,22.8v76c0,12.6-10.2,22.8-22.8,22.8h-71.4l9.8,24l-43.1-24H22.8
		C10.2,121.6,0,111.4,0,98.8v-76C-0.1,10.3,10.1,0,22.7,0z"/>
	<path class="st1" d="M12.2,20.7c1.4-1.9,3.5-2.9,6.3-3.1c5.1-0.4,8,2,8.7,7.2c3.1,20.9,6.5,38.6,10.1,53.1l21.9-41.7
		c2-3.8,4.5-5.8,7.5-6c4.4-0.3,7.1,2.5,8.2,8.4c2.5,13.3,5.7,24.6,9.5,34.2c2.6-25.4,7-43.7,13.2-55c1.5-2.8,3.7-4.2,6.6-4.4
		c2.3-0.2,4.4,0.5,6.3,2c1.9,1.5,2.9,3.4,3.1,5.7c0.1,1.8-0.2,3.3-1,4.8c-3.9,7.2-7.1,19.3-9.7,36.1c-2.5,16.3-3.4,29-2.8,38.1
		c0.2,2.5-0.2,4.7-1.2,6.6c-1.2,2.2-3,3.4-5.3,3.6c-2.6,0.2-5.3-1-7.9-3.7C76.4,97.1,69,82.9,63.6,64c-6.5,12.8-11.3,22.4-14.4,28.8
		c-5.9,11.3-10.9,17.1-15.1,17.4c-2.7,0.2-5-2.1-7-6.9C22,90.2,16.5,64.9,10.6,27.4C10.3,24.8,10.8,22.5,12.2,20.7z"/>
	<path class="st1" d="M227.2,36.4c-3.6-6.3-8.9-10.1-16-11.6c-1.9-0.4-3.7-0.6-5.4-0.6c-9.6,0-17.4,5-23.5,15
		c-5.2,8.5-7.8,17.9-7.8,28.2c0,7.7,1.6,14.3,4.8,19.8c3.6,6.3,8.9,10.1,16,11.6c1.9,0.4,3.7,0.6,5.4,0.6c9.7,0,17.5-5,23.5-15
		c5.2-8.6,7.8-18,7.8-28.3C232,48.3,230.4,41.8,227.2,36.4L227.2,36.4z M214.6,64.1c-1.4,6.6-3.9,11.5-7.6,14.8
		c-2.9,2.6-5.6,3.7-8.1,3.2c-2.4-0.5-4.4-2.6-5.9-6.5c-1.2-3.1-1.8-6.2-1.8-9.1c0-2.5,0.2-5,0.7-7.3c0.9-4.1,2.6-8.1,5.3-11.9
		c3.3-4.9,6.8-6.9,10.4-6.2c2.4,0.5,4.4,2.6,5.9,6.5c1.2,3.1,1.8,6.2,1.8,9.1C215.3,59.3,215,61.8,214.6,64.1L214.6,64.1z"/>
	<path class="st1" d="M164.5,36.4c-3.6-6.3-9-10.1-16-11.6c-1.9-0.4-3.7-0.6-5.4-0.6c-9.6,0-17.4,5-23.5,15
		c-5.2,8.5-7.8,17.9-7.8,28.2c0,7.7,1.6,14.3,4.8,19.8c3.6,6.3,8.9,10.1,16,11.6c1.9,0.4,3.7,0.6,5.4,0.6c9.7,0,17.5-5,23.5-15
		c5.2-8.6,7.8-18,7.8-28.3C169.3,48.3,167.7,41.8,164.5,36.4L164.5,36.4z M151.9,64.1c-1.4,6.6-3.9,11.5-7.6,14.8
		c-2.9,2.6-5.6,3.7-8.1,3.2c-2.4-0.5-4.4-2.6-5.9-6.5c-1.2-3.1-1.8-6.2-1.8-9.1c0-2.5,0.2-5,0.7-7.3c0.9-4.1,2.6-8.1,5.3-11.9
		c3.3-4.9,6.8-6.9,10.4-6.2c2.4,0.5,4.4,2.6,5.9,6.5c1.2,3.1,1.8,6.2,1.8,9.1C152.6,59.3,152.4,61.8,151.9,64.1L151.9,64.1z"/>
	<g>
		<g>
			<path d="M269.9,35.5c-6.7,6.6-10,15-10,25.2c0,10.9,3.3,19.8,9.9,26.5s15.2,10.1,25.9,10.1c3.1,0,6.6-0.5,10.4-1.6V79.5
				c-3.5,1-6.5,1.5-9.1,1.5c-5.3,0-9.5-1.8-12.7-5.3c-3.2-3.6-4.8-8.4-4.8-14.5c0-5.7,1.6-10.4,4.7-14c3.2-3.7,7.1-5.5,11.9-5.5
				c3.1,0,6.4,0.5,10,1.5V27c-3.3-0.9-7-1.3-10.9-1.3C285,25.6,276.6,28.9,269.9,35.5z M339.3,25.6c-9.2,0-16.4,3.1-21.6,9.2
				S310,49.5,310,60.5c0,11.9,2.6,21,7.7,27.3s12.6,9.5,22.4,9.5c9.5,0,16.8-3.2,21.9-9.5s7.7-15.2,7.7-26.6s-2.6-20.2-7.8-26.4
				C356.6,28.7,349.1,25.6,339.3,25.6z M347.2,77.6c-1.8,2.8-4.5,4.2-7.9,4.2c-3.2,0-5.6-1.4-7.3-4.2c-1.7-2.8-2.5-8.4-2.5-16.9
				c0-13.1,3.3-19.6,10-19.6c7,0,10.6,6.6,10.6,19.9C350,69.2,349,74.8,347.2,77.6z M419.1,27.5l-3.6,15.3c-0.9,3.9-1.8,7.9-2.6,12
				l-2,10.6c-1.9-10.6-4.5-23.2-7.8-37.9h-23.2l-8.7,68.1h17.4l4.7-46.9l11.9,46.9h12.4L429,48.8l4.9,46.8h18.2l-9.2-68.1
				L419.1,27.5L419.1,27.5z M502.4,27.5l-3.6,15.3c-0.9,3.9-1.8,7.9-2.6,12l-2,10.6c-1.9-10.6-4.5-23.2-7.8-37.9h-23.2l-8.7,68.1
				h17.4l4.7-46.9l11.9,46.9h12.4l11.3-46.8l4.9,46.8h18.2l-9.2-68.1H502.4z M559,68.7h16.3V54.6H559V42.1h18.8V27.6h-37.2v68.1
				h37.3V81.2H559V68.7z M629.7,57.9c1.9-3.1,2.9-6.3,2.9-9.6c0-6.4-2.5-11.5-7.5-15.2s-11.9-5.6-20.5-5.6h-21.4v68.1h18.4v-31h0.3
				l14.9,31h19.4l-14.7-30.7C625,63.3,627.8,61,629.7,57.9z M601.5,56.8V40.6c4.4,0.1,7.5,0.8,9.4,2.2c1.9,1.4,2.8,3.6,2.8,6.8
				C613.7,54.3,609.6,56.7,601.5,56.8z M643.4,35.5c-6.7,6.6-10,15-10,25.2c0,10.9,3.3,19.8,9.9,26.5c6.6,6.7,15.2,10.1,25.9,10.1
				c3.1,0,6.6-0.5,10.4-1.6V79.5c-3.5,1-6.5,1.5-9.1,1.5c-5.3,0-9.5-1.8-12.7-5.3c-3.2-3.6-4.8-8.4-4.8-14.5c0-5.7,1.6-10.4,4.7-14
				c3.2-3.7,7.1-5.5,11.9-5.5c3.1,0,6.4,0.5,10,1.5V27c-3.3-0.9-7-1.3-10.9-1.3C658.6,25.6,650.1,28.9,643.4,35.5z M703.1,81V68.6
				h16.3V54.5h-16.3V42H722V27.5h-37.2v68.1h37.3V81.1h-19V81z"/>
		</g>
	</g>
</g>
</svg>
