<?xml version="1.0" encoding="utf-8"?>
<!-- Generator: Adobe Illustrator 22.0.1, SVG Export Plug-In . SVG Version: 6.00 Build 0)  -->
<svg version="1.1" id="Layer_1" xmlns="http://www.w3.org/2000/svg" xmlns:xlink="http://www.w3.org/1999/xlink" x="0px" y="0px"
	 viewBox="0 0 1200 257" style="enable-background:new 0 0 1200 257;" xml:space="preserve">
<style type="text/css">
	.st0{fill:#3D4150;}
</style>
<title>Logo Dark</title>
<desc>Created with Sketch.</desc>
<g id="Page-1">
	<g id="Logo-Dark">
		<g id="Logo" transform="translate(0.000000, 4.000000)">
			<g id="Icon">
				<g id="_x31_498626690_x5F_travel-amenities-gift-box">
					<path id="Combined-Shape" class="st0" d="M227.8,43.1c0-18.5-13.3-42.9-45.3-42.9c-18.8,0-40.8,12.8-51.8,43.4
						C119.8,13,97.7,0.2,79,0.2c-32,0-45.3,24.4-45.3,42.9c0,37,38.9,51.9,74.3,51.9h45.6C188.9,95.1,227.8,80.1,227.8,43.1z
						 M53.1,43.1c0-11.9,10.2-23.5,25.9-23.5c14.5,0,36.8,15.2,37.7,56C97.7,75.6,53.1,75.6,53.1,43.1z M182.5,19.6
						c15.7,0,25.9,11.6,25.9,23.5c0,32.5-44.6,32.5-63.6,32.5C144.7,34.1,167.5,19.6,182.5,19.6z M0.1,130.6h261.1v-23.2
						c0-24.2,0-24.2-24.2-24.2H24.4c-24.2,0-24.2,0-24.2,24.2V130.6z M249.4,139.2v63.4l0-12H12v34.2h237.4v0.9
						c0,24.2,0,24.2-24.2,24.2h-189c-24.2,0-24.2,0-24.2-24.2v-86.5H249.4z M249.4,130.8v-23.2H12v23.2H249.4z"/>
				</g>
			</g>
			<path id="GIFTCARDMART" class="st0" d="M385.2,177.6c-3.7,1.9-7.9,3.4-12.8,4.6c-4.9,1.2-10.2,1.8-16,1.8c-6,0-11.5-0.9-16.5-2.8
				c-5-1.9-9.3-4.6-13-8c-3.6-3.4-6.4-7.6-8.5-12.4c-2-4.8-3.1-10.2-3.1-16.1c0-6,1-11.4,3.1-16.2c2.1-4.8,4.9-9,8.6-12.4
				c3.7-3.4,7.9-6,12.9-7.9s10.2-2.7,15.9-2.7c5.9,0,11.4,0.9,16.4,2.7s9.2,4.2,12.3,7.2l-11.4,13c-1.8-2-4.1-3.7-7-5
				c-2.9-1.3-6.1-2-9.8-2c-3.2,0-6.1,0.6-8.7,1.7c-2.7,1.2-5,2.8-7,4.8c-2,2.1-3.5,4.5-4.6,7.4s-1.6,6-1.6,9.3
				c0,3.4,0.5,6.6,1.5,9.5c1,2.9,2.4,5.4,4.4,7.4c1.9,2.1,4.3,3.7,7.2,4.8c2.8,1.2,6.1,1.7,9.8,1.7c2.1,0,4.1-0.2,6-0.5
				c1.9-0.3,3.7-0.8,5.3-1.5v-13.6h-14.2v-14.5h30.8V177.6z M405.6,182.2v-74.6h18.1v74.6H405.6z M462.7,122.9v15.4h28.9v14.9h-28.9
				v29h-17.8v-74.6H494v15.4H462.7z M543.2,122.9v59.2h-18v-59.2h-21.1v-15.4h60.2v15.4H543.2z M640.7,171.8
				c-3.3,3.8-7.4,6.8-12.2,9s-10.4,3.3-16.8,3.3c-5.8,0-11.1-0.9-16-2.8s-9.1-4.6-12.7-8.1c-3.6-3.5-6.4-7.6-8.4-12.5
				c-2-4.8-3.1-10.2-3.1-16c0-6,1-11.4,3.1-16.2s4.9-9,8.6-12.4s7.9-6,12.9-7.9c4.9-1.8,10.2-2.7,15.9-2.7c5.3,0,10.5,0.9,15.5,2.8
				c5.1,1.9,9.2,4.6,12.4,8.2l-12.2,12.2c-1.7-2.3-3.9-4-6.6-5.2c-2.7-1.1-5.6-1.7-8.4-1.7c-3.2,0-6.1,0.6-8.7,1.7
				c-2.6,1.2-4.9,2.8-6.8,4.8c-1.9,2-3.4,4.4-4.4,7.2c-1.1,2.8-1.6,5.8-1.6,9.1c0,3.4,0.5,6.5,1.6,9.3c1.1,2.8,2.5,5.2,4.4,7.2
				c1.9,2,4.1,3.6,6.7,4.7c2.6,1.1,5.4,1.7,8.5,1.7c3.6,0,6.7-0.7,9.4-2.1c2.7-1.4,4.8-3.2,6.4-5.5L640.7,171.8z M703.4,182.2
				l-5.8-14.7h-28.9l-5.5,14.7h-19.6l31.3-74.6h17.5l31,74.6H703.4z M683.4,127.4l-9.5,25.6h18.8L683.4,127.4z M775.3,182.2
				l-16.1-29.6h-6.1v29.6h-17.7v-74.6h28.5c3.6,0,7.1,0.4,10.5,1.1c3.4,0.7,6.5,2,9.2,3.7c2.7,1.8,4.9,4.1,6.5,7
				c1.6,2.9,2.4,6.5,2.4,10.8c0,5.1-1.4,9.3-4.1,12.8s-6.5,5.9-11.4,7.4l19.5,31.9H775.3z M774.6,130.4c0-1.8-0.4-3.2-1.1-4.3
				c-0.7-1.1-1.7-1.9-2.8-2.5c-1.2-0.6-2.5-1-3.9-1.2s-2.8-0.3-4.2-0.3H753v17.4h8.5c1.5,0,3-0.1,4.5-0.4c1.5-0.2,3-0.7,4.2-1.3
				c1.3-0.6,2.3-1.5,3.1-2.7C774.2,133.8,774.6,132.3,774.6,130.4z M880.6,144.6c0,6.5-1.2,12.2-3.6,16.9c-2.4,4.7-5.6,8.6-9.6,11.7
				s-8.5,5.3-13.4,6.7c-5,1.4-10,2.2-15.2,2.2h-27.8v-74.6h27c5.3,0,10.5,0.6,15.6,1.8c5.1,1.2,9.7,3.3,13.7,6.1
				c4,2.8,7.2,6.7,9.7,11.4C879.4,131.7,880.6,137.6,880.6,144.6z M861.9,144.6c0-4.2-0.7-7.7-2.1-10.5c-1.4-2.8-3.2-5-5.5-6.6
				c-2.3-1.7-4.9-2.8-7.8-3.5s-5.9-1.1-9-1.1h-9v43.6h8.5c3.2,0,6.3-0.4,9.3-1.1c3-0.7,5.6-2,7.9-3.6s4.1-3.9,5.5-6.7
				C861.2,152.2,861.9,148.8,861.9,144.6z"/>
			<g id="Mart" transform="translate(892.199578, 107.097681)">
				<polygon id="Path" class="st0" points="67.9,75.1 77.7,21.6 77.3,21.6 48.3,75.1 36,75.1 26.1,21.6 25.6,21.6 16.7,75.1 
					0.2,75.1 13.4,0.4 38,0.4 46.6,48.8 47,48.8 72.2,0.4 98.3,0.4 85.1,75.1 				"/>
				<path id="Combined-Shape_1_" class="st0" d="M150.3,75.1l-2.5-14.9H119l-9,14.9h-20l47.5-74.6h17.1l14.1,74.6H150.3z
					 M142.1,19.6l-15.6,26.5H146L142.1,19.6z"/>
				<path id="Combined-Shape_2_" class="st0" d="M237.2,75.1h-19.8l-12.5-30h-7.2l-5.1,30h-17.1l13.2-74.6h25.5
					c8.2,0,14.6,1.7,19.2,5.2c4.6,3.5,6.9,8.3,6.9,14.6c0,6-1.7,11-5,14.8c-3.3,3.8-7.8,6.4-13.4,7.9L237.2,75.1z M207.8,32.5
					c4.7,0,8.4-0.8,11-2.3c2.6-1.5,3.9-4,3.9-7.4c0-3.1-1.1-5.2-3.3-6.3c-2.2-1.1-5.1-1.7-8.7-1.7h-7.5L200,32.5H207.8z"/>
				<polygon id="Path_1_" class="st0" points="284.1,15.5 273.6,75.1 256.1,75.1 266.5,15.5 245.7,15.5 248.4,0.4 307.2,0.4 
					304.6,15.5 				"/>
			</g>
		</g>
	</g>
</g>
</svg>
